<svg id="Layer_1" data-name="Layer 1" xmlns="http://www.w3.org/2000/svg" viewBox="0 0 756.64 367.39"><defs><style>.cls-1{fill:none;stroke:#000;stroke-width:4px;}</style></defs><path class="cls-1" d="M1277,494.53c-6.51-4.73-13.61-2.95-17.76,3.56-11.84,18.34-22.49,34.92-32.55,53.27-16.57,30.77-36.7,65.7-54.46,72.21-.59,0-.59-.6-1.18-1.19-.59-1.77-1.18-4.14.59-11.84,7.11-32.55,16.58-63.33,26-94.7,12.43-47.35,31.37-87.6,31.37-132.58.59-19.53-8.88-33.15-27.82-42C1177,330,1155.09,333,1135,351.3c-55,50.31-81.68,163.36-89.38,188.22,1.78-20.72,4.74-40.25,7.7-61,8.87-51.49,10.06-91.74-1.78-133.76-4.74-14.8-15.39-24.27-31.37-27.82-23.08-5.33-42.62.59-58.6,16.57-36.1,36.11-36.1,91.74-42.61,138.5-2.37,18.94-3.55,37.88-5.92,57.42-2.37-4.74-4.74-9.47-4.74-14.21l-6.51-87c-2.37-24.26-3.55-48.53-7.69-72.8-2.37-16-11.84-22.49-27.82-24.27-4.74,0-8.88-.59-13.61,0-18.95,1.78-27.23,7.7-30.19,26.05-7.7,47.35-9.47,93.51.59,140.27.34,1.85.7,3.68,1.07,5.51-19.14,30.38-28.17,39.71-48.42,44.21,1.78-5.32,3.55-10.06,5.33-13l1.77-4.73c11.25-37.29,20.13-74,18.35-113.65a150.06,150.06,0,0,0-16-63.92c-20.72-42-82.27-45-107.72-6.51-28.41,42-39.07,95.29-53.27,142.05l-10.66,37.88c-1.77,0-1.18-.59-3-.59,1.78-7.1,1.78-14.2,2.37-21.31,4.14-38.47,8.29-76.94,17.17-114.82,4.73-20.72,10.06-41.44,14.2-62.15,4.14-14.8-.59-21.9-14.2-28.41-29-13.62-57.42-1.78-69.85,27.22-9.47,21.9-13.61,46.17-17.75,68.07-7.11,37.88-14.21,75.76-12.43,115.42.59,17.16,3.55,34.33,10.65,50.9q11.55,27.52,39.07,33.74c23.08,5.33,38.47-3,46.75-24.86,2.37-6.51,4.15-11.84,5.92-18.35l24.86-89.37c8.88-33.74,23.09-64.52,45-92.34,4.14-5.32,9.47-10.06,16-16.57,6.51,10.06,6.51,19.53,8.28,28.41,4.74,56.23,0,110.68-8.87,167.5l-16.58,5.92a94.75,94.75,0,0,0-38.47,26c-9.47,11.24-16,23.67-16.57,38.47-1.78,45.57,48.53,44.39,75.17,24.27,14.2-12.43,30.18-42,42-68.07,38.74-1.55,56.29-18.88,69.57-37.82a254.41,254.41,0,0,0,13.29,33.08c8.29,16,21.31,26.64,38.48,31.37,17.16,5.33,32-1.77,45.57-10.65,9.47-6.51,4.15-17.16,5.92-25.45,4.14-37.88,6.51-72.8,11.25-108.32,4.73-41.43,6.51-86.41,36.69-110.09,2.37-1.77,5.33-3,10.07-5.32.59,56.22-5.33,93.51-10.66,131.39-4.73,33.15-5.92,65.7-1.18,98.85,4.14,23.68,18.94,36.1,42,34.33a177,177,0,0,0,24.86-3c4.15-.59,7.11-3.55,8.29-9.47,11.24-51.49,47.35-159.22,76.94-200.06,6.51-8.88,11.84-15.39,23.68-21.9l-7.1,24.27c-7.7,25.45-16,50.9-23.09,76.35-8.87,36.11-16,71.62-15.39,108.91,0,14.8,1.19,28.41,7.7,42,4.14,6.52,8.29,13.62,14.8,17.76,5.32,4.14,11.24,6.51,17.75,8.29a35.92,35.92,0,0,0,13,2.36,40.12,40.12,0,0,0,8.29-1.18c31.37-6.51,50.9-45,75.17-86.41,11.25-19.54,21.31-34.93,31.37-51.5C1284.71,505.19,1281.16,496.9,1277,494.53ZM684,632.44c-14.21-21.9-1.78-50.31,27.22-61.55C713,586.87,700.52,621.2,684,632.44Z" transform="translate(-527.78 -290.4)"/></svg>